<mxfile host="app.diagrams.net" modified="2022-09-25T12:52:07.091Z" agent="5.0 (Windows)" etag="0lXonTz_zPUfMxIU32Ql" version="20.3.6" type="github">
  <diagram id="C5RBs43oDa-KdzZeNtuy" name="Page-1">
    <mxGraphModel dx="1038" dy="564" grid="1" gridSize="10" guides="1" tooltips="1" connect="1" arrows="1" fold="1" page="1" pageScale="1" pageWidth="827" pageHeight="1169" math="0" shadow="0">
      <root>
        <mxCell id="WIyWlLk6GJQsqaUBKTNV-0" />
        <mxCell id="WIyWlLk6GJQsqaUBKTNV-1" parent="WIyWlLk6GJQsqaUBKTNV-0" />
        <mxCell id="wE5K_o-vscYa7pYafG9P-15" value="" style="edgeStyle=orthogonalEdgeStyle;rounded=0;orthogonalLoop=1;jettySize=auto;html=1;" edge="1" parent="WIyWlLk6GJQsqaUBKTNV-1" source="wE5K_o-vscYa7pYafG9P-0" target="wE5K_o-vscYa7pYafG9P-2">
          <mxGeometry relative="1" as="geometry" />
        </mxCell>
        <mxCell id="wE5K_o-vscYa7pYafG9P-0" value="начало" style="ellipse;whiteSpace=wrap;html=1;" vertex="1" parent="WIyWlLk6GJQsqaUBKTNV-1">
          <mxGeometry x="282" y="40" width="120" height="40" as="geometry" />
        </mxCell>
        <mxCell id="wE5K_o-vscYa7pYafG9P-11" style="edgeStyle=orthogonalEdgeStyle;rounded=0;orthogonalLoop=1;jettySize=auto;html=1;entryX=0;entryY=0.5;entryDx=0;entryDy=0;" edge="1" parent="WIyWlLk6GJQsqaUBKTNV-1" source="wE5K_o-vscYa7pYafG9P-1" target="wE5K_o-vscYa7pYafG9P-4">
          <mxGeometry relative="1" as="geometry">
            <Array as="points">
              <mxPoint x="342" y="600" />
              <mxPoint x="110" y="600" />
              <mxPoint x="110" y="330" />
            </Array>
          </mxGeometry>
        </mxCell>
        <mxCell id="wE5K_o-vscYa7pYafG9P-1" value="lenght++" style="rounded=0;whiteSpace=wrap;html=1;" vertex="1" parent="WIyWlLk6GJQsqaUBKTNV-1">
          <mxGeometry x="240" y="540" width="204" height="40" as="geometry" />
        </mxCell>
        <mxCell id="wE5K_o-vscYa7pYafG9P-14" value="" style="edgeStyle=orthogonalEdgeStyle;rounded=0;orthogonalLoop=1;jettySize=auto;html=1;" edge="1" parent="WIyWlLk6GJQsqaUBKTNV-1" source="wE5K_o-vscYa7pYafG9P-2" target="wE5K_o-vscYa7pYafG9P-6">
          <mxGeometry relative="1" as="geometry" />
        </mxCell>
        <mxCell id="wE5K_o-vscYa7pYafG9P-2" value="array[&quot;hello&quot;, &quot;2&quot;, &quot;world&quot;, &quot;:-)&quot;]" style="shape=parallelogram;perimeter=parallelogramPerimeter;whiteSpace=wrap;html=1;fixedSize=1;labelBackgroundColor=none;" vertex="1" parent="WIyWlLk6GJQsqaUBKTNV-1">
          <mxGeometry x="249" y="110" width="186" height="60" as="geometry" />
        </mxCell>
        <mxCell id="wE5K_o-vscYa7pYafG9P-8" value="" style="edgeStyle=orthogonalEdgeStyle;rounded=0;orthogonalLoop=1;jettySize=auto;html=1;" edge="1" parent="WIyWlLk6GJQsqaUBKTNV-1" source="wE5K_o-vscYa7pYafG9P-4" target="wE5K_o-vscYa7pYafG9P-5">
          <mxGeometry relative="1" as="geometry" />
        </mxCell>
        <mxCell id="wE5K_o-vscYa7pYafG9P-17" value="" style="edgeStyle=orthogonalEdgeStyle;rounded=0;orthogonalLoop=1;jettySize=auto;html=1;entryX=0.5;entryY=0;entryDx=0;entryDy=0;" edge="1" parent="WIyWlLk6GJQsqaUBKTNV-1" source="wE5K_o-vscYa7pYafG9P-4" target="wE5K_o-vscYa7pYafG9P-16">
          <mxGeometry relative="1" as="geometry" />
        </mxCell>
        <mxCell id="wE5K_o-vscYa7pYafG9P-4" value="i = 0; i &amp;lt; array.Lenght; i++" style="shape=hexagon;perimeter=hexagonPerimeter2;whiteSpace=wrap;html=1;fixedSize=1;labelBackgroundColor=none;" vertex="1" parent="WIyWlLk6GJQsqaUBKTNV-1">
          <mxGeometry x="248" y="300" width="188" height="60" as="geometry" />
        </mxCell>
        <mxCell id="wE5K_o-vscYa7pYafG9P-7" value="" style="edgeStyle=orthogonalEdgeStyle;rounded=0;orthogonalLoop=1;jettySize=auto;html=1;" edge="1" parent="WIyWlLk6GJQsqaUBKTNV-1" source="wE5K_o-vscYa7pYafG9P-5" target="wE5K_o-vscYa7pYafG9P-1">
          <mxGeometry relative="1" as="geometry" />
        </mxCell>
        <mxCell id="wE5K_o-vscYa7pYafG9P-12" style="edgeStyle=orthogonalEdgeStyle;rounded=0;orthogonalLoop=1;jettySize=auto;html=1;entryX=0;entryY=0.5;entryDx=0;entryDy=0;" edge="1" parent="WIyWlLk6GJQsqaUBKTNV-1" source="wE5K_o-vscYa7pYafG9P-5" target="wE5K_o-vscYa7pYafG9P-4">
          <mxGeometry relative="1" as="geometry">
            <Array as="points">
              <mxPoint x="170" y="445" />
              <mxPoint x="170" y="330" />
            </Array>
          </mxGeometry>
        </mxCell>
        <mxCell id="wE5K_o-vscYa7pYafG9P-5" value="array[i].Lenght &amp;lt; 4" style="rhombus;whiteSpace=wrap;html=1;labelBackgroundColor=none;" vertex="1" parent="WIyWlLk6GJQsqaUBKTNV-1">
          <mxGeometry x="244" y="395" width="196" height="100" as="geometry" />
        </mxCell>
        <mxCell id="wE5K_o-vscYa7pYafG9P-13" value="" style="edgeStyle=orthogonalEdgeStyle;rounded=0;orthogonalLoop=1;jettySize=auto;html=1;" edge="1" parent="WIyWlLk6GJQsqaUBKTNV-1" source="wE5K_o-vscYa7pYafG9P-6" target="wE5K_o-vscYa7pYafG9P-4">
          <mxGeometry relative="1" as="geometry" />
        </mxCell>
        <mxCell id="wE5K_o-vscYa7pYafG9P-6" value="lenght = 0" style="rounded=0;whiteSpace=wrap;html=1;" vertex="1" parent="WIyWlLk6GJQsqaUBKTNV-1">
          <mxGeometry x="240" y="220" width="204" height="40" as="geometry" />
        </mxCell>
        <mxCell id="wE5K_o-vscYa7pYafG9P-9" value="yes" style="text;html=1;align=center;verticalAlign=middle;resizable=0;points=[];autosize=1;strokeColor=none;fillColor=none;" vertex="1" parent="WIyWlLk6GJQsqaUBKTNV-1">
          <mxGeometry x="300" y="495" width="40" height="30" as="geometry" />
        </mxCell>
        <mxCell id="wE5K_o-vscYa7pYafG9P-10" value="no" style="text;html=1;align=center;verticalAlign=middle;resizable=0;points=[];autosize=1;strokeColor=none;fillColor=none;" vertex="1" parent="WIyWlLk6GJQsqaUBKTNV-1">
          <mxGeometry x="221" y="410" width="40" height="30" as="geometry" />
        </mxCell>
        <mxCell id="wE5K_o-vscYa7pYafG9P-19" value="" style="edgeStyle=orthogonalEdgeStyle;rounded=0;orthogonalLoop=1;jettySize=auto;html=1;" edge="1" parent="WIyWlLk6GJQsqaUBKTNV-1" source="wE5K_o-vscYa7pYafG9P-16" target="wE5K_o-vscYa7pYafG9P-18">
          <mxGeometry relative="1" as="geometry" />
        </mxCell>
        <mxCell id="wE5K_o-vscYa7pYafG9P-16" value="&lt;div&gt;rezArray[lenght]&lt;/div&gt;&lt;div&gt;rezSize = 0&lt;br&gt;&lt;/div&gt;" style="whiteSpace=wrap;html=1;labelBackgroundColor=none;" vertex="1" parent="WIyWlLk6GJQsqaUBKTNV-1">
          <mxGeometry x="600" y="350" width="120" height="60" as="geometry" />
        </mxCell>
        <mxCell id="wE5K_o-vscYa7pYafG9P-29" style="edgeStyle=orthogonalEdgeStyle;rounded=0;orthogonalLoop=1;jettySize=auto;html=1;entryX=0.5;entryY=0;entryDx=0;entryDy=0;" edge="1" parent="WIyWlLk6GJQsqaUBKTNV-1" source="wE5K_o-vscYa7pYafG9P-18" target="wE5K_o-vscYa7pYafG9P-28">
          <mxGeometry relative="1" as="geometry" />
        </mxCell>
        <mxCell id="wE5K_o-vscYa7pYafG9P-18" value="i in array; rezSize++" style="shape=hexagon;perimeter=hexagonPerimeter2;whiteSpace=wrap;html=1;fixedSize=1;labelBackgroundColor=none;" vertex="1" parent="WIyWlLk6GJQsqaUBKTNV-1">
          <mxGeometry x="585" y="445" width="150" height="80" as="geometry" />
        </mxCell>
        <mxCell id="wE5K_o-vscYa7pYafG9P-23" style="edgeStyle=orthogonalEdgeStyle;rounded=0;orthogonalLoop=1;jettySize=auto;html=1;entryX=0;entryY=0.5;entryDx=0;entryDy=0;" edge="1" parent="WIyWlLk6GJQsqaUBKTNV-1" source="wE5K_o-vscYa7pYafG9P-20" target="wE5K_o-vscYa7pYafG9P-18">
          <mxGeometry relative="1" as="geometry">
            <Array as="points">
              <mxPoint x="565" y="610" />
              <mxPoint x="565" y="485" />
            </Array>
          </mxGeometry>
        </mxCell>
        <mxCell id="wE5K_o-vscYa7pYafG9P-25" value="" style="edgeStyle=orthogonalEdgeStyle;rounded=0;orthogonalLoop=1;jettySize=auto;html=1;" edge="1" parent="WIyWlLk6GJQsqaUBKTNV-1" source="wE5K_o-vscYa7pYafG9P-20" target="wE5K_o-vscYa7pYafG9P-24">
          <mxGeometry relative="1" as="geometry" />
        </mxCell>
        <mxCell id="wE5K_o-vscYa7pYafG9P-20" value="i.Lenght &amp;lt;=3" style="rhombus;whiteSpace=wrap;html=1;labelBackgroundColor=none;" vertex="1" parent="WIyWlLk6GJQsqaUBKTNV-1">
          <mxGeometry x="620" y="570" width="80" height="80" as="geometry" />
        </mxCell>
        <mxCell id="wE5K_o-vscYa7pYafG9P-21" value="yes" style="text;html=1;align=center;verticalAlign=middle;resizable=0;points=[];autosize=1;strokeColor=none;fillColor=none;" vertex="1" parent="WIyWlLk6GJQsqaUBKTNV-1">
          <mxGeometry x="600" y="630" width="40" height="30" as="geometry" />
        </mxCell>
        <mxCell id="wE5K_o-vscYa7pYafG9P-22" value="no" style="text;html=1;align=center;verticalAlign=middle;resizable=0;points=[];autosize=1;strokeColor=none;fillColor=none;" vertex="1" parent="WIyWlLk6GJQsqaUBKTNV-1">
          <mxGeometry x="590" y="570" width="40" height="30" as="geometry" />
        </mxCell>
        <mxCell id="wE5K_o-vscYa7pYafG9P-26" style="edgeStyle=orthogonalEdgeStyle;rounded=0;orthogonalLoop=1;jettySize=auto;html=1;entryX=0;entryY=0.5;entryDx=0;entryDy=0;" edge="1" parent="WIyWlLk6GJQsqaUBKTNV-1" source="wE5K_o-vscYa7pYafG9P-24" target="wE5K_o-vscYa7pYafG9P-18">
          <mxGeometry relative="1" as="geometry">
            <Array as="points">
              <mxPoint x="660" y="770" />
              <mxPoint x="510" y="770" />
              <mxPoint x="510" y="485" />
            </Array>
          </mxGeometry>
        </mxCell>
        <mxCell id="wE5K_o-vscYa7pYafG9P-24" value="rezArray[rezSize] = i" style="rounded=0;whiteSpace=wrap;html=1;labelBackgroundColor=none;" vertex="1" parent="WIyWlLk6GJQsqaUBKTNV-1">
          <mxGeometry x="600" y="690" width="120" height="60" as="geometry" />
        </mxCell>
        <mxCell id="wE5K_o-vscYa7pYafG9P-31" value="" style="edgeStyle=orthogonalEdgeStyle;rounded=0;orthogonalLoop=1;jettySize=auto;html=1;" edge="1" parent="WIyWlLk6GJQsqaUBKTNV-1" source="wE5K_o-vscYa7pYafG9P-28" target="wE5K_o-vscYa7pYafG9P-30">
          <mxGeometry relative="1" as="geometry" />
        </mxCell>
        <mxCell id="wE5K_o-vscYa7pYafG9P-28" value="rezArray[]" style="shape=parallelogram;perimeter=parallelogramPerimeter;whiteSpace=wrap;html=1;fixedSize=1;labelBackgroundColor=none;" vertex="1" parent="WIyWlLk6GJQsqaUBKTNV-1">
          <mxGeometry x="840" y="570" width="120" height="60" as="geometry" />
        </mxCell>
        <mxCell id="wE5K_o-vscYa7pYafG9P-30" value="конец" style="ellipse;whiteSpace=wrap;html=1;labelBackgroundColor=none;" vertex="1" parent="WIyWlLk6GJQsqaUBKTNV-1">
          <mxGeometry x="840" y="710" width="120" height="60" as="geometry" />
        </mxCell>
      </root>
    </mxGraphModel>
  </diagram>
</mxfile>
